<?xml version="1.0" encoding="UTF-8" standalone="no"?>
<svg
   xmlns:osb="http://www.openswatchbook.org/uri/2009/osb"
   xmlns:dc="http://purl.org/dc/elements/1.1/"
   xmlns:cc="http://creativecommons.org/ns#"
   xmlns:rdf="http://www.w3.org/1999/02/22-rdf-syntax-ns#"
   xmlns:svg="http://www.w3.org/2000/svg"
   xmlns="http://www.w3.org/2000/svg"
   xmlns:xlink="http://www.w3.org/1999/xlink"
   xmlns:sodipodi="http://sodipodi.sourceforge.net/DTD/sodipodi-0.dtd"
   xmlns:inkscape="http://www.inkscape.org/namespaces/inkscape"
   viewBox="0 0 620.62897 26.996468"
   height="26.996468"
   width="620.62897"
   id="svg4225"
   version="1.1"
   inkscape:version="0.92.5 (2060ec1f9f, 2020-04-08)"
   sodipodi:docname="spritesheet.svg"
   inkscape:export-filename="/home/fpuga/development/upstream/icarto.Leaflet.draw/src/images/spritesheet-2x.png"
   inkscape:export-xdpi="90"
   inkscape:export-ydpi="90">
  <metadata
     id="metadata4258">
    <rdf:RDF>
      <cc:Work
         rdf:about="">
        <dc:format>image/svg+xml</dc:format>
        <dc:type
           rdf:resource="http://purl.org/dc/dcmitype/StillImage" />
        <dc:title></dc:title>
      </cc:Work>
    </rdf:RDF>
  </metadata>
  <defs
     id="defs4256">
    <linearGradient
       id="linearGradient6348"
       osb:paint="solid">
      <stop
         style="stop-color:#000000;stop-opacity:1;"
         offset="0"
         id="stop6346" />
    </linearGradient>
  </defs>
  <sodipodi:namedview
     pagecolor="#ffffff"
     bordercolor="#666666"
     borderopacity="1"
     objecttolerance="10"
     gridtolerance="10"
     guidetolerance="10"
     inkscape:pageopacity="0"
     inkscape:pageshadow="2"
     inkscape:window-width="2560"
     inkscape:window-height="1352"
     id="namedview4254"
     showgrid="false"
     inkscape:zoom="5.2407408"
     inkscape:cx="507.41153"
     inkscape:cy="30.934733"
     inkscape:window-x="0"
     inkscape:window-y="27"
     inkscape:window-maximized="1"
     inkscape:current-layer="svg4225" />
  <g
     id="enabled"
     style="fill:#464646;fill-opacity:1"
     transform="translate(-18,-16)">
    <g
       id="polyline"
       style="fill:#464646;fill-opacity:1">
      <path
         d="m 18,36 v 6 h 6 v -6 z m 4,4 h -2 v -2 h 2 z"
         id="path4229"
         inkscape:connector-curvature="0"
         style="fill:#464646;fill-opacity:1" />
      <path
         d="m 36,18 v 6 h 6 v -6 z m 4,4 h -2 v -2 h 2 z"
         id="path4231"
         inkscape:connector-curvature="0"
         style="fill:#464646;fill-opacity:1" />
      <path
         d="m 23.142,39.145 -2.285,-2.29 16,-15.998 2.285,2.285 z"
         id="path4233"
         inkscape:connector-curvature="0"
         style="fill:#464646;fill-opacity:1" />
    </g>
    <path
       id="polygon"
       d="M 100,24.565 97.904,39.395 83.07,42 76,28.773 86.463,18 Z"
       inkscape:connector-curvature="0"
       style="fill:#464646;fill-opacity:1" />
    <path
       id="rectangle"
       d="m 140,20 h 20 v 20 h -20 z"
       inkscape:connector-curvature="0"
       style="fill:#464646;fill-opacity:1" />
    <path
       id="circle"
       d="m 221,30 c 0,6.078 -4.926,11 -11,11 -6.074,0 -11,-4.922 -11,-11 0,-6.074 4.926,-11 11,-11 6.074,0 11,4.926 11,11 z"
       inkscape:connector-curvature="0"
       style="fill:#464646;fill-opacity:1" />
    <path
       id="marker"
       d="m 270,19 c -4.971,0 -9,4.029 -9,9 0,4.971 5.001,12 9,14 4.001,-2 9,-9.029 9,-14 0,-4.971 -4.029,-9 -9,-9 z m 0,12.5 c -2.484,0 -4.5,-2.014 -4.5,-4.5 0,-2.484 2.016,-4.5 4.5,-4.5 2.485,0 4.5,2.016 4.5,4.5 0,2.486 -2.015,4.5 -4.5,4.5 z"
       inkscape:connector-curvature="0"
       style="fill:#464646;fill-opacity:1" />
    <g
       id="edit"
       style="fill:#464646;fill-opacity:1">
      <path
         d="m 337,30.156 v 0.407 5.604 c 0,1.658 -1.344,3 -3,3 h -10 c -1.655,0 -3,-1.342 -3,-3 v -10 c 0,-1.657 1.345,-3 3,-3 h 6.345 l 3.19,-3.17 H 324 c -3.313,0 -6,2.687 -6,6 v 10 c 0,3.313 2.687,6 6,6 h 10 c 3.314,0 6,-2.687 6,-6 v -8.809 l -3,2.968"
         id="path4240"
         inkscape:connector-curvature="0"
         style="fill:#464646;fill-opacity:1" />
      <path
         d="m 338.72,24.637 -8.892,8.892 H 327 V 30.7 l 8.89,-8.89 z"
         id="path4242"
         inkscape:connector-curvature="0"
         style="fill:#464646;fill-opacity:1" />
      <path
         d="m 338.697,17.826 h 4 v 4 h -4 z"
         transform="rotate(-134.99,340.703,19.816999)"
         id="path4244"
         inkscape:connector-curvature="0"
         style="fill:#464646;fill-opacity:1" />
    </g>
    <g
       id="remove"
       style="fill:#464646;fill-opacity:1">
      <path
         d="m 381,42 h 18 V 24 h -18 z m 14,-16 h 2 v 14 h -2 z m -4,0 h 2 v 14 h -2 z m -4,0 h 2 v 14 h -2 z m -4,0 h 2 v 14 h -2 z"
         id="path4247"
         inkscape:connector-curvature="0"
         style="fill:#464646;fill-opacity:1" />
      <path
         d="m 395,20 v -4 h -10 v 4 h -6 v 2 h 22 v -2 z m -2,0 h -6 v -2 h 6 z"
         id="path4249"
         inkscape:connector-curvature="0"
         style="fill:#464646;fill-opacity:1" />
    </g>
  </g>
  <g
     id="disabled"
     transform="translate(102,-16)"
     style="fill:#bbbbbb">
    <use
       xlink:href="#edit"
       id="edit-disabled"
       x="0"
       y="0"
       width="100%"
       height="100%" />
    <use
       xlink:href="#remove"
       id="remove-disabled"
       x="0"
       y="0"
       width="100%"
       height="100%" />
  </g>
  <path
     style="fill:none;stroke:#464646;stroke-width:2;stroke-miterlimit:4;stroke-dasharray:none;stroke-opacity:1"
     id="circle-3"
     d="m 563.65725,14 c 0,6.078 -4.926,11 -11,11 -6.074,0 -11,-4.922 -11,-11 0,-6.074 4.926,-11 11,-11 6.074,0 11,4.926 11,11 z"
     inkscape:connector-curvature="0" />
  <g
     transform="matrix(0.03274157,-0.03676455,0.03905781,0.03081915,586.47722,14.978519)"
     id="g3946"
     style="fill:#464646;fill-opacity:1">
    <g
       id="g3944"
       style="fill:#464646;fill-opacity:1">
      <path
         inkscape:connector-curvature="0"
         d="m 446.102,408.415 c -6.521,-31.26 -30.876,-56.531 -62.065,-64.385 -21.334,-5.354 -42.773,-2.656 -61.565,7.604 L 298.4,297.208 390.517,76.144 c 2.771,-6.656 4.167,-13.667 4.167,-20.844 0,-18.156 -9.021,-35.01 -24.126,-45.083 L 357.932,1.8 c -2.625,-1.76 -5.896,-2.26 -8.896,-1.365 -3.021,0.875 -5.5,3.042 -6.771,5.927 L 256.013,201.375 169.758,6.363 c -1.271,-2.885 -3.75,-5.052 -6.771,-5.927 -3.021,-0.896 -6.292,-0.396 -8.896,1.365 l -12.625,8.417 C 126.361,20.29 117.34,37.144 117.34,55.3 c 0,7.177 1.396,14.187 4.167,20.844 l 92.114,221.083 -24.091,54.417 c -12.396,-6.771 -26.084,-10.302 -40.189,-10.302 -47.064,0 -85.337,38.281 -85.337,85.333 0,47.052 38.272,85.333 85.337,85.333 47.064,0 85.337,-38.281 85.337,-85.333 0,-31.553 10.326,-54.621 21.32,-70.391 10.688,15.298 20.671,37.202 21.307,67.349 1,47.188 36.522,85.948 80.836,88.26 1.542,0.073 3.063,0.115 4.563,0.115 25.022,0 48.439,-10.729 64.815,-29.844 17.375,-20.28 24.146,-47.166 18.583,-73.749 z m -296.764,60.927 c -23.521,0 -42.667,-19.135 -42.667,-42.667 0,-23.532 19.146,-42.667 42.667,-42.667 23.521,0 42.667,19.135 42.667,42.667 0,23.532 -19.146,42.667 -42.667,42.667 z M 256.004,320.009 c -11.771,0 -21.333,-9.573 -21.333,-21.333 0,-11.76 9.563,-21.333 21.333,-21.333 11.771,0 21.333,9.573 21.333,21.333 0,11.76 -9.562,21.333 -21.333,21.333 z m 106.667,149.333 c -23.521,0 -42.667,-19.135 -42.667,-42.667 0,-23.532 19.146,-42.667 42.667,-42.667 23.521,0 42.667,19.135 42.667,42.667 0,23.532 -19.146,42.667 -42.667,42.667 z"
         id="path3942"
         style="fill:#464646;fill-opacity:1" />
    </g>
  </g>
  <g
     transform="matrix(0.02606042,0,0,0.02606042,606.72635,11.332101)"
     id="g3948"
     style="fill:#464646;fill-opacity:1" />
  <g
     transform="matrix(0.02606042,0,0,0.02606042,606.72635,11.332101)"
     id="g3950"
     style="fill:#464646;fill-opacity:1" />
  <g
     transform="matrix(0.02606042,0,0,0.02606042,606.72635,11.332101)"
     id="g3952"
     style="fill:#464646;fill-opacity:1" />
  <g
     transform="matrix(0.02606042,0,0,0.02606042,606.72635,11.332101)"
     id="g3954"
     style="fill:#464646;fill-opacity:1" />
  <g
     transform="matrix(0.02606042,0,0,0.02606042,606.72635,11.332101)"
     id="g3956"
     style="fill:#464646;fill-opacity:1" />
  <g
     transform="matrix(0.02606042,0,0,0.02606042,606.72635,11.332101)"
     id="g3958"
     style="fill:#464646;fill-opacity:1" />
  <g
     transform="matrix(0.02606042,0,0,0.02606042,606.72635,11.332101)"
     id="g3960"
     style="fill:#464646;fill-opacity:1" />
  <g
     transform="matrix(0.02606042,0,0,0.02606042,606.72635,11.332101)"
     id="g3962"
     style="fill:#464646;fill-opacity:1" />
  <g
     transform="matrix(0.02606042,0,0,0.02606042,606.72635,11.332101)"
     id="g3964"
     style="fill:#464646;fill-opacity:1" />
  <g
     transform="matrix(0.02606042,0,0,0.02606042,606.72635,11.332101)"
     id="g3966"
     style="fill:#464646;fill-opacity:1" />
  <g
     transform="matrix(0.02606042,0,0,0.02606042,606.72635,11.332101)"
     id="g3968"
     style="fill:#464646;fill-opacity:1" />
  <g
     transform="matrix(0.02606042,0,0,0.02606042,606.72635,11.332101)"
     id="g3970"
     style="fill:#464646;fill-opacity:1" />
  <g
     transform="matrix(0.02606042,0,0,0.02606042,606.72635,11.332101)"
     id="g3972"
     style="fill:#464646;fill-opacity:1" />
  <g
     transform="matrix(0.02606042,0,0,0.02606042,606.72635,11.332101)"
     id="g3974"
     style="fill:#464646;fill-opacity:1" />
  <g
     transform="matrix(0.02606042,0,0,0.02606042,606.72635,11.332101)"
     id="g3976"
     style="fill:#464646;fill-opacity:1" />
</svg>
